<svg xmlns="http://www.w3.org/2000/svg" width="64" height="64" viewBox="0 0 64 64">
  <defs>
    <linearGradient id="g" x1="0" y1="0" x2="1" y2="1">
      <stop offset="0%" stop-color="#5a67d8"/>
      <stop offset="100%" stop-color="#38b2ac"/>
    </linearGradient>
  </defs>
  <rect x="4" y="4" width="56" height="56" rx="14" fill="url(#g)"/>
  <!-- Chat bubble -->
  <path d="M20 22h24a8 8 0 0 1 8 8v4a8 8 0 0 1-8 8H30l-8 6v-6h-2a8 8 0 0 1-8-8v-4a8 8 0 0 1 8-8z" fill="#ffffff" opacity="0.92"/>
  <!-- Phone receiver inside bubble -->
  <path d="M37.5 33.5c1.2-1.2 1.2-3.1 0-4.3l-1.3-1.3c-.9-.9-2.3-.9-3.2 0l-1.4 1.4c-.6.6-.8 1.5-.6 2.3.7 2.6 2.3 5.1 4.6 7.4s4.8 3.9 7.4 4.6c.8.2 1.7 0 2.3-.6l1.4-1.4c.9-.9.9-2.3 0-3.2l-1.3-1.3c-1.2-1.2-3.1-1.2-4.3 0l-.9.9c-1.6-.6-3.2-1.6-4.7-3.1-1.5-1.5-2.5-3.1-3.1-4.7l.9-.9z" fill="#1a202c" opacity="0.9"/>
  <!-- CH monogram for brand feel -->
  <text x="16" y="20" font-family="Inter, system-ui, -apple-system, Segoe UI, Roboto, Helvetica, Arial" font-size="12" font-weight="700" fill="#ffffff" opacity="0.85">CH</text>
</svg>